<svg xmlns="http://www.w3.org/2000/svg" width="512" height="512" style="overflow: visible;" viewBox="0 0 512 512" data-bbox="85.6837782340863 12.779544933914394 372.1724845995893 488.30863548493903"><g data-uid="o_f3dff827m_40"><g transform="matrix(6.202874660491943, 0, 0, 6.202874660491943, 73.27803039550781, 12.779544830322266)" data-uid="o_f3dff827m_4" stroke="#ffffff"><path fill="#FFC252" d="M36 16V1L20 11v11l-8 5v12c0 0 4 9 4 12c0 2.209-1.791 4-4 4v4h24V31h4V19L36 16z" transform="matrix(1, 0, 0, 1, 0, 0)" data-uid="o_f3dff827m_5" stroke="#ffffff"></path><path fill="#FFDE8A" d="M12 27v12c0 0 4 9 4 12c0 2.209-1.791 4-4 4v4h8V22L12 27z" transform="matrix(1, 0, 0, 1, 0, 0)" data-uid="o_f3dff827m_6" stroke="#ffffff"></path><path fill="#FFDE8A" transform="matrix(1, 0, 0, 1, 0, 0)" data-type="polygon" d="M36 1L28 6L28 59L36 59Z" data-uid="o_f3dff827m_7" stroke="#ffffff"></path><path fill="none" stroke="#ffffff" stroke-width="2" stroke-miterlimit="10" transform="matrix(1, 0, 0, 1, 0, 0)" data-type="line" data-x1="32" data-y1="26" data-x2="32" data-y2="28" d="M32 26L32 28" data-uid="o_f3dff827m_8"></path><path fill="none" stroke="#ffffff" stroke-width="2" stroke-miterlimit="10" transform="matrix(1, 0, 0, 1, 0, 0)" data-type="line" data-x1="36" data-y1="26" data-x2="36" data-y2="28" d="M36 26L36 28" data-uid="o_f3dff827m_9"></path><path fill="none" stroke="#ffffff" stroke-width="2" stroke-miterlimit="10" transform="matrix(1, 0, 0, 1, 0, 0)" data-type="line" data-x1="32" data-y1="22" data-x2="32" data-y2="24" d="M32 22L32 24" data-uid="o_f3dff827m_10"></path><path fill="none" stroke="#ffffff" stroke-width="2" stroke-miterlimit="10" transform="matrix(1, 0, 0, 1, 0, 0)" data-type="line" data-x1="32" data-y1="18" data-x2="32" data-y2="20" d="M32 18L32 20" data-uid="o_f3dff827m_11"></path><path fill="none" stroke="#ffffff" stroke-width="2" stroke-miterlimit="10" transform="matrix(1, 0, 0, 1, 0, 0)" data-type="line" data-x1="32" data-y1="14" data-x2="32" data-y2="16" d="M32 14L32 16" data-uid="o_f3dff827m_12"></path><path fill="none" stroke="#ffffff" stroke-width="2" stroke-miterlimit="10" transform="matrix(1, 0, 0, 1, 0, 0)" data-type="line" data-x1="32" data-y1="10" data-x2="32" data-y2="12" d="M32 10L32 12" data-uid="o_f3dff827m_13"></path><path fill="none" stroke="#ffffff" stroke-width="2" stroke-miterlimit="10" transform="matrix(1, 0, 0, 1, 0, 0)" data-type="line" data-x1="32" data-y1="30" data-x2="32" data-y2="32" d="M32 30L32 32" data-uid="o_f3dff827m_14"></path><path fill="none" stroke="#ffffff" stroke-width="2" stroke-miterlimit="10" transform="matrix(1, 0, 0, 1, 0, 0)" data-type="line" data-x1="32" data-y1="34" data-x2="32" data-y2="36" d="M32 34L32 36" data-uid="o_f3dff827m_15"></path><path fill="none" stroke="#ffffff" stroke-width="2" stroke-miterlimit="10" transform="matrix(1, 0, 0, 1, 0, 0)" data-type="line" data-x1="32" data-y1="38" data-x2="32" data-y2="40" d="M32 38L32 40" data-uid="o_f3dff827m_16"></path><path fill="none" stroke="#ffffff" stroke-width="2" stroke-miterlimit="10" transform="matrix(1, 0, 0, 1, 0, 0)" data-type="line" data-x1="32" data-y1="42" data-x2="32" data-y2="44" d="M32 42L32 44" data-uid="o_f3dff827m_17"></path><path fill="none" stroke="#ffffff" stroke-width="2" stroke-miterlimit="10" transform="matrix(1, 0, 0, 1, 0, 0)" data-type="line" data-x1="32" data-y1="46" data-x2="32" data-y2="48" d="M32 46L32 48" data-uid="o_f3dff827m_18"></path><path fill="none" stroke="#ffffff" stroke-width="2" stroke-miterlimit="10" transform="matrix(1, 0, 0, 1, 0, 0)" data-type="line" data-x1="32" data-y1="50" data-x2="32" data-y2="52" d="M32 50L32 52" data-uid="o_f3dff827m_19"></path><path fill="none" stroke="#ffffff" stroke-width="2" stroke-miterlimit="10" transform="matrix(1, 0, 0, 1, 0, 0)" data-type="line" data-x1="32" data-y1="54" data-x2="32" data-y2="56" d="M32 54L32 56" data-uid="o_f3dff827m_20"></path><path fill="none" stroke="#ffffff" stroke-width="2" stroke-miterlimit="10" transform="matrix(1, 0, 0, 1, 0, 0)" data-type="line" data-x1="36" data-y1="22" data-x2="36" data-y2="24" d="M36 22L36 24" data-uid="o_f3dff827m_21"></path><path fill="none" stroke="#ffffff" stroke-width="2" stroke-miterlimit="10" transform="matrix(1, 0, 0, 1, 0, 0)" data-type="polyline" d="M40 24L40 19L36 16L36 1L35 1L20 11L20 22L12 27L12 36" data-uid="o_f3dff827m_22"></path><path fill="none" stroke="#ffffff" stroke-width="2" stroke-miterlimit="10" transform="matrix(1, 0, 0, 1, 0, 0)" data-type="polyline" d="M52 48L52 31L36 31L36 59" data-uid="o_f3dff827m_23"></path><path fill="none" stroke="#ffffff" stroke-width="2" stroke-miterlimit="10" transform="matrix(1, 0, 0, 1, 0, 0)" data-type="polyline" d="M48 31L48 27L40 27L40 31" data-uid="o_f3dff827m_24"></path><path fill="none" stroke="#ffffff" stroke-width="2" stroke-miterlimit="10" transform="matrix(1, 0, 0, 1, 0, 0)" data-type="line" data-x1="39" data-y1="35" data-x2="49" data-y2="35" d="M39 35L49 35" data-uid="o_f3dff827m_25"></path><path fill="none" stroke="#ffffff" stroke-width="2" stroke-miterlimit="10" transform="matrix(1, 0, 0, 1, 0, 0)" data-type="line" data-x1="39" data-y1="39" data-x2="49" data-y2="39" d="M39 39L49 39" data-uid="o_f3dff827m_26"></path><path fill="none" stroke="#ffffff" stroke-width="2" stroke-miterlimit="10" transform="matrix(1, 0, 0, 1, 0, 0)" data-type="line" data-x1="39" data-y1="43" data-x2="49" data-y2="43" d="M39 43L49 43" data-uid="o_f3dff827m_27"></path><path fill="none" stroke="#ffffff" stroke-width="2" stroke-miterlimit="10" transform="matrix(1, 0, 0, 1, 0, 0)" data-type="line" data-x1="39" data-y1="47" data-x2="49" data-y2="47" d="M39 47L49 47" data-uid="o_f3dff827m_28"></path><path fill="none" stroke="#ffffff" stroke-width="2" stroke-miterlimit="10" transform="matrix(1, 0, 0, 1, 0, 0)" data-type="line" data-x1="39" data-y1="51" data-x2="46" data-y2="51" d="M39 51L46 51" data-uid="o_f3dff827m_29"></path><path fill="none" stroke="#ffffff" stroke-width="2" stroke-miterlimit="10" transform="matrix(1, 0, 0, 1, 0, 0)" data-type="line" data-x1="39" data-y1="55" data-x2="43" data-y2="55" d="M39 55L43 55" data-uid="o_f3dff827m_30"></path><path fill="none" stroke="#ffffff" stroke-width="2" stroke-linejoin="round" stroke-miterlimit="10" d="M57 55    c-0.378 0-0.729 0.111-1.029 0.293C55.978 55.194 56 55.101 56 55c0-2.209-1.789-4-4-4s-4 1.791-4 4c-1.105 0-2 0.896-2 2    c0 1.105 0.895 2 2 2h9c1.105 0 2-0.895 2-2C59 55.896 58.105 55 57 55z" transform="matrix(1, 0, 0, 1, 0, 0)" data-uid="o_f3dff827m_31"></path><path fill="none" stroke="#ffffff" stroke-width="2" stroke-linejoin="round" stroke-miterlimit="10" d="M12 39c0 0-4 9-4 12    c0 2.209 1.791 4 4 4s4-1.791 4-4C16 48 12 39 12 39z" transform="matrix(1, 0, 0, 1, 0, 0)" data-uid="o_f3dff827m_32"></path><path fill="none" stroke="#ffffff" stroke-width="2" stroke-linejoin="round" stroke-miterlimit="10" transform="matrix(1, 0, 0, 1, 0, 0)" data-type="line" data-x1="12" data-y1="50" data-x2="12" data-y2="59" d="M12 50L12 59" data-uid="o_f3dff827m_33"></path><path fill="#57DCF2" transform="matrix(1, 0, 0, 1, 0, 0)" data-type="polyline" d="M3 64L3 59L61 59L61 64" data-uid="o_f3dff827m_34" stroke="#ffffff"></path><path fill="none" stroke="#ffffff" stroke-width="2" stroke-linejoin="round" stroke-miterlimit="10" transform="matrix(1, 0, 0, 1, 0, 0)" data-type="line" data-x1="3" data-y1="59" data-x2="61" data-y2="59" d="M3 59L61 59" data-uid="o_f3dff827m_35"></path></g><path text="EmploYes" fill="#ffffff" space="preserve" text-anchor="middle" offset="0.5" font-scale="contain" font-size="48" font-family="Fjalla One" transform="matrix(2.173476219177246, 0, 0, 2.173476219177246, 269.8135681152344, 478.4188232421875)" data-fl-textpath="" font-weight="400" font-style="normal" data-uid="o_f3dff827m_36" d="M-84.71671875 0L-84.71671875-40.03L-69.87671875-40.03L-69.87671875-35.25L-78.64671875-35.25L-78.64671875-23.27L-71.86671875-23.27L-71.86671875-18.49L-78.64671875-18.49L-78.64671875-4.78L-69.64671875-4.78L-69.64671875 0L-84.71671875 0ZM-65.63359375 0L-65.63359375-32.27L-61.04359375-32.27L-60.52359375-28.83L-60.52359375-28.8Q-59.82359375-29.91 -59.02359375-30.64Q-58.23359375-31.38 -57.37359375-31.83Q-56.52359375-32.27 -55.61359375-32.46Q-54.71359375-32.65 -53.82359375-32.65L-53.82359375-32.65Q-51.923593749999995-32.65 -50.61359375-31.73Q-49.303593750000005-30.82 -48.62359375-28.99L-48.62359375-28.99Q-47.913593750000004-30.05 -47.13359375-30.75Q-46.34359375-31.45 -45.50359375-31.88Q-44.663593750000004-32.3 -43.79359375-32.47Q-42.923593749999995-32.65 -42.03359375-32.65L-42.03359375-32.65Q-39.22359375-32.65 -37.68359375-30.67Q-36.15359375-28.69 -36.15359375-24.73L-36.15359375-24.73L-36.15359375 0L-42.08359375 0L-42.08359375-24.52Q-42.08359375-25.57 -42.24359375-26.3Q-42.413593750000004-27.02 -42.73359375-27.47Q-43.063593749999995-27.91 -43.58359375-28.11Q-44.09359375-28.31 -44.82359375-28.31L-44.82359375-28.31Q-45.64359375-28.31 -46.46359375-27.71Q-47.28359375-27.12 -47.96359375-26.06L-47.96359375-26.06Q-47.943593750000005-25.85 -47.943593750000005-25.64Q-47.943593750000005-25.43 -47.943593750000005-25.22L-47.943593750000005-25.22L-47.943593750000005 0L-53.87359375 0L-53.87359375-24.52Q-53.87359375-25.57 -54.03359375-26.3Q-54.203593749999996-27.02 -54.52359375-27.47Q-54.85359375-27.91 -55.37359375-28.11Q-55.88359375-28.31 -56.61359375-28.31L-56.61359375-28.31Q-57.413593750000004-28.31 -58.23359375-27.73Q-59.05359375-27.14 -59.703593749999996-26.11L-59.703593749999996-26.11L-59.703593749999996 0L-65.63359375 0ZM-24.26859375-2.13L-24.07859375 1.83L-24.07859375 10.43L-30.00859375 10.43L-30.00859375-32.27L-25.36859375-32.27L-24.82859375-28.88Q-24.428593749999997-29.53 -23.87859375-30.21Q-23.32859375-30.89 -22.59859375-31.42Q-21.85859375-31.95 -20.928593749999997-32.29Q-20.00859375-32.63 -18.85859375-32.63L-18.85859375-32.63Q-18.35859375-32.63 -17.66859375-32.53Q-16.97859375-32.44 -16.23859375-32.06Q-15.50859375-31.69 -14.76859375-30.95Q-14.028593749999999-30.21 -13.44859375-28.92Q-12.87859375-27.63 -12.51859375-25.71Q-12.14859375-23.79 -12.14859375-21.05L-12.14859375-21.05L-12.14859375-11.27Q-12.14859375-8.53 -12.51859375-6.61Q-12.87859375-4.69 -13.46859375-3.4Q-14.048593749999998-2.11 -14.798593749999998-1.36Q-15.548593749999998-0.61 -16.32859375-0.23Q-17.09859375 0.14 -17.82859375 0.25Q-18.548593750000002 0.35 -19.08859375 0.35L-19.08859375 0.35Q-20.96859375 0.35 -22.21859375-0.38Q-23.46859375-1.1 -24.26859375-2.13L-24.26859375-2.13ZM-24.07859375-26.09L-24.07859375-6.59Q-23.89859375-6.12 -23.62859375-5.7Q-23.35859375-5.27 -22.98859375-4.95Q-22.62859375-4.62 -22.16859375-4.42Q-21.71859375-4.22 -21.10859375-4.22L-21.10859375-4.22Q-20.44859375-4.22 -19.90859375-4.46Q-19.368593750000002-4.71 -18.96859375-5.36Q-18.57859375-6 -18.34859375-7.15Q-18.12859375-8.3 -18.12859375-10.1L-18.12859375-10.1L-18.12859375-22.45Q-18.12859375-24.26 -18.34859375-25.39Q-18.57859375-26.53 -18.95859375-27.19Q-19.34859375-27.84 -19.88859375-28.08Q-20.428593749999997-28.31 -21.07859375-28.31L-21.07859375-28.31Q-22.20859375-28.31 -22.91859375-27.64Q-23.63859375-26.98 -24.07859375-26.09L-24.07859375-26.09ZM-6.715468749999999 0L-6.715468749999999-42.63L-0.7854687499999997-42.63L-0.7854687499999997 0L-6.715468749999999 0ZM 13.53546875 0.35L 13.53546875 0.35Q 12.50546875 0.35  11.43546875 0.19Q 10.37546875 0.02  9.37546875-0.49Q 8.37546875-1.01  7.49546875-1.97Q 6.62546875-2.93  5.965468749999999-4.5Q 5.30546875-6.07  4.93546875-8.37Q 4.55546875-10.66  4.55546875-13.85L 4.55546875-13.85L 4.55546875-18.91Q 4.55546875-22.05  4.94546875-24.29Q 5.33546875-26.53  5.995468750000001-28.05Q 6.66546875-29.58  7.55546875-30.48Q 8.44546875-31.38  9.44546875-31.86Q 10.44546875-32.34  11.49546875-32.5Q 12.55546875-32.65  13.55546875-32.65L 13.55546875-32.65Q 14.51546875-32.65  15.55546875-32.51Q 16.58546875-32.37  17.56546875-31.91Q 18.55546875-31.45  19.42546875-30.55Q 20.30546875-29.65  20.97546875-28.13Q 21.64546875-26.6  22.03546875-24.34Q 22.41546875-22.08  22.41546875-18.91L 22.41546875-18.91L 22.41546875-13.85Q 22.41546875-10.71  22.01546875-8.44Q 21.62546875-6.16  20.94546875-4.59Q 20.26546875-3.02  19.37546875-2.05Q 18.48546875-1.08  17.49546875-0.54Q 16.51546875 0  15.49546875 0.18Q 14.47546875 0.35  13.53546875 0.35ZM 13.58546875-4.22L 13.58546875-4.22Q 14.37546875-4.22  14.92546875-4.63Q 15.48546875-5.04  15.81546875-5.98Q 16.15546875-6.91  16.31546875-8.45Q 16.46546875-9.98  16.46546875-12.26L 16.46546875-12.26L 16.46546875-20.2Q 16.46546875-22.48  16.31546875-24.02Q 16.15546875-25.57  15.81546875-26.52Q 15.48546875-27.47  14.92546875-27.89Q 14.37546875-28.31  13.58546875-28.31L 13.58546875-28.31Q 12.73546875-28.31  12.16546875-27.89Q 11.58546875-27.47  11.21546875-26.52Q 10.83546875-25.57  10.67546875-24.02Q 10.51546875-22.48  10.51546875-20.2L 10.51546875-20.2L 10.51546875-12.26Q 10.51546875-9.98  10.67546875-8.45Q 10.83546875-6.91  11.21546875-5.98Q 11.58546875-5.04  12.16546875-4.63Q 12.73546875-4.22  13.58546875-4.22ZM 32.80109375 0L 32.80109375-13.34L 24.74109375-40.03L 30.85109375-40.03L 35.75109375-20.88L 36.03109375-20.88L 40.891093749999996-40.03L 46.98109375-40.03L 38.87109375-13.34L 38.87109375 0L 32.80109375 0ZM 57.92765625 0.35L 57.92765625 0.35Q 55.83765625 0.35  54.23765625-0.42Q 52.62765625-1.2  51.52765625-2.84Q 50.42765625-4.48  49.86765625-7.04Q 49.29765625-9.61  49.29765625-13.22L 49.29765625-13.22L 49.29765625-19.31Q 49.29765625-22.38  49.75765625-24.57Q 50.21765625-26.77  50.95765625-28.25Q 51.68765625-29.74  52.66765625-30.61Q 53.63765625-31.48  54.66765625-31.93Q 55.69765625-32.39  56.71765625-32.52Q 57.73765625-32.65  58.60765625-32.65L 58.60765625-32.65Q 60.19765625-32.65  61.67765625-32.17Q 63.14765625-31.69  64.27765625-30.53Q 65.39765625-29.37  66.06765625-27.42Q 66.73765625-25.48  66.73765625-22.57L 66.73765625-22.57Q 66.73765625-21.59  66.67765625-20.58Q 66.61765625-19.57  66.52765625-18.6Q 66.43765625-17.63  66.27765625-16.71Q 66.12765625-15.8  65.96765625-15.02L 65.96765625-15.02L 55.25765625-15.02L 55.25765625-11.74Q 55.25765625-9.63  55.41765625-8.19Q 55.577656250000004-6.75  55.96765625-5.87Q 56.35765625-4.99  57.02765625-4.61Q 57.68765625-4.22  58.69765625-4.22L 58.69765625-4.22Q 59.23765625-4.22  59.75765625-4.44Q 60.26765625-4.66  60.65765625-5.18Q 61.04765625-5.7  61.27765625-6.55Q 61.50765625-7.41  61.50765625-8.67L 61.50765625-8.67L 61.50765625-9.68L 66.45765625-9.68L 66.45765625-8.44Q 66.45765625-3.84  64.26765625-1.75Q 62.077656250000004 0.35  57.92765625 0.35ZM 55.25765625-19.01L 61.20765625-19.01Q 61.22765625-19.27  61.25765625-19.7Q 61.27765625-20.13  61.28765625-20.6Q 61.29765625-21.07  61.29765625-21.53Q 61.29765625-21.98  61.29765625-22.31L 61.29765625-22.31Q 61.29765625-25.5  60.54765625-26.91Q 59.79765625-28.31  58.327656250000004-28.31L 58.327656250000004-28.31Q 57.54765625-28.31  56.96765625-27.95Q 56.37765625-27.59  56.00765625-26.73Q 55.62765625-25.88  55.43765625-24.47Q 55.25765625-23.06  55.25765625-20.98L 55.25765625-20.98L 55.25765625-19.01ZM 70.48703125-6.75L 70.48703125-6.75Q 70.48703125-7.8  70.68703125-8.79Q 70.88703125-9.77  71.07703125-10.36L 71.07703125-10.36L 75.24703125-10.36Q 75.24703125-8.6  75.41703125-7.42Q 75.59703125-6.23  75.99703125-5.53Q 76.39703125-4.83  77.06703125-4.52Q 77.72703125-4.22  78.68703125-4.22L 78.68703125-4.22Q 80.02703125-4.22  80.63703125-4.97Q 81.24703124999999-5.72  81.24703124999999-6.7L 81.24703124999999-6.7Q 81.24703124999999-7.22  81.10703125-7.69Q 80.96703125-8.16  80.70703125-8.64Q 80.44703125-9.12  80.07703125-9.61Q 79.69703125-10.1  79.22703125-10.69L 79.22703125-10.69L 74.89703125-15.8Q 74.04703125-16.85  73.26703125-17.94Q 72.47703125-19.03  71.88703125-20.19Q 71.28703125-21.35  70.91703125-22.62Q 70.55703125-23.88  70.55703125-25.29L 70.55703125-25.29Q 70.55703125-27.16  71.20703125-28.55Q 71.84703125-29.93  72.93703125-30.84Q 74.02703125-31.76  75.45703125-32.2Q 76.88703125-32.65  78.47703125-32.65L 78.47703125-32.65Q 80.23703125-32.65  81.64703125-32.23Q 83.04703125-31.8  84.05703125-30.96Q 85.06703125-30.12  85.60703125-28.86Q 86.14703125-27.61  86.14703125-25.95L 86.14703125-25.95Q 86.14703125-24.82  85.94703125-23.77Q 85.74703124999999-22.71  85.55703125-21.96L 85.55703125-21.96L 81.45703125-21.96Q 81.43703125-23.55  81.31703125-24.75Q 81.19703125-25.95  80.88703125-26.73Q 80.56703125-27.52  80.01703125-27.91Q 79.46703125-28.31  78.57703125-28.31L 78.57703125-28.31Q 77.79703125-28.31  77.28703125-28.07Q 76.76703125-27.82  76.45703125-27.42Q 76.13703125-27.02  76.00703125-26.53Q 75.87703125-26.04  75.87703125-25.52L 75.87703125-25.52Q 75.87703125-24.4  76.41703125-23.44Q 76.95703125-22.48  77.84703125-21.35L 77.84703125-21.35L 82.58703125-15.8Q 83.09703125-15.16  83.77703125-14.26Q 84.45703125-13.36  85.06703125-12.27Q 85.67703125-11.18  86.09703125-9.89Q 86.51703125-8.6  86.51703125-7.2L 86.51703125-7.2Q 86.51703125-5.48  85.97703125-4.09Q 85.43703125-2.7  84.38703125-1.71Q 83.33703125-0.73  81.79703125-0.19Q 80.25703125 0.35  78.29703125 0.35L 78.29703125 0.35Q 76.67703125 0.35  75.24703125-0.01Q 73.81703125-0.38  72.75703125-1.21Q 71.70703125-2.04  71.09703125-3.4Q 70.48703125-4.76  70.48703125-6.75Z"></path></g></svg>